<mxfile host="Electron" modified="2024-10-17T03:07:50.276Z" agent="Mozilla/5.0 (Windows NT 10.0; Win64; x64) AppleWebKit/537.36 (KHTML, like Gecko) draw.io/24.2.5 Chrome/120.0.6099.109 Electron/28.1.0 Safari/537.36" etag="S5c9qZYlQKqVdMGljz_m" version="24.2.5" type="device">
  <diagram id="C5RBs43oDa-KdzZeNtuy" name="Page-1">
    <mxGraphModel dx="3000" dy="1774" grid="1" gridSize="11" guides="1" tooltips="1" connect="1" arrows="1" fold="1" page="1" pageScale="1" pageWidth="3300" pageHeight="4681" math="0" shadow="0">
      <root>
        <mxCell id="WIyWlLk6GJQsqaUBKTNV-0" />
        <mxCell id="WIyWlLk6GJQsqaUBKTNV-1" parent="WIyWlLk6GJQsqaUBKTNV-0" />
        <mxCell id="zkfFHV4jXpPFQw0GAbJ--0" value="IReport" style="swimlane;fontStyle=2;align=center;verticalAlign=top;childLayout=stackLayout;horizontal=1;startSize=26;horizontalStack=0;resizeParent=1;resizeLast=0;collapsible=1;marginBottom=0;rounded=0;shadow=0;strokeWidth=1;" parent="WIyWlLk6GJQsqaUBKTNV-1" vertex="1">
          <mxGeometry x="653.5" y="891" width="187" height="67" as="geometry">
            <mxRectangle x="230" y="140" width="160" height="26" as="alternateBounds" />
          </mxGeometry>
        </mxCell>
        <mxCell id="zkfFHV4jXpPFQw0GAbJ--4" value="" style="line;html=1;strokeWidth=1;align=left;verticalAlign=middle;spacingTop=-1;spacingLeft=3;spacingRight=3;rotatable=0;labelPosition=right;points=[];portConstraint=eastwest;" parent="zkfFHV4jXpPFQw0GAbJ--0" vertex="1">
          <mxGeometry y="26" width="187" height="8" as="geometry" />
        </mxCell>
        <mxCell id="zkfFHV4jXpPFQw0GAbJ--5" value="String generate(String content)" style="text;align=left;verticalAlign=top;spacingLeft=4;spacingRight=4;overflow=hidden;rotatable=0;points=[[0,0.5],[1,0.5]];portConstraint=eastwest;" parent="zkfFHV4jXpPFQw0GAbJ--0" vertex="1">
          <mxGeometry y="34" width="187" height="26" as="geometry" />
        </mxCell>
        <mxCell id="1QSXjgdurOBsBtaRAweG-6" style="edgeStyle=orthogonalEdgeStyle;rounded=0;orthogonalLoop=1;jettySize=auto;html=1;exitX=0.5;exitY=1;exitDx=0;exitDy=0;entryX=0.5;entryY=0;entryDx=0;entryDy=0;dashed=1;endArrow=block;endFill=0;" edge="1" parent="WIyWlLk6GJQsqaUBKTNV-1" source="zkfFHV4jXpPFQw0GAbJ--17" target="zkfFHV4jXpPFQw0GAbJ--0">
          <mxGeometry relative="1" as="geometry" />
        </mxCell>
        <mxCell id="zkfFHV4jXpPFQw0GAbJ--17" value="PDFReport" style="swimlane;fontStyle=0;align=center;verticalAlign=top;childLayout=stackLayout;horizontal=1;startSize=26;horizontalStack=0;resizeParent=1;resizeLast=0;collapsible=1;marginBottom=0;rounded=0;shadow=0;strokeWidth=1;" parent="WIyWlLk6GJQsqaUBKTNV-1" vertex="1">
          <mxGeometry x="462" y="748" width="174" height="78" as="geometry">
            <mxRectangle x="550" y="140" width="160" height="26" as="alternateBounds" />
          </mxGeometry>
        </mxCell>
        <mxCell id="zkfFHV4jXpPFQw0GAbJ--23" value="" style="line;html=1;strokeWidth=1;align=left;verticalAlign=middle;spacingTop=-1;spacingLeft=3;spacingRight=3;rotatable=0;labelPosition=right;points=[];portConstraint=eastwest;" parent="zkfFHV4jXpPFQw0GAbJ--17" vertex="1">
          <mxGeometry y="26" width="174" height="8" as="geometry" />
        </mxCell>
        <mxCell id="zkfFHV4jXpPFQw0GAbJ--25" value="String generate(String content)" style="text;align=left;verticalAlign=top;spacingLeft=4;spacingRight=4;overflow=hidden;rotatable=0;points=[[0,0.5],[1,0.5]];portConstraint=eastwest;" parent="zkfFHV4jXpPFQw0GAbJ--17" vertex="1">
          <mxGeometry y="34" width="174" height="26" as="geometry" />
        </mxCell>
        <mxCell id="1QSXjgdurOBsBtaRAweG-8" style="edgeStyle=orthogonalEdgeStyle;rounded=0;orthogonalLoop=1;jettySize=auto;html=1;exitX=0.5;exitY=1;exitDx=0;exitDy=0;entryX=0.5;entryY=0;entryDx=0;entryDy=0;dashed=1;endArrow=block;endFill=0;" edge="1" parent="WIyWlLk6GJQsqaUBKTNV-1" source="1QSXjgdurOBsBtaRAweG-0" target="zkfFHV4jXpPFQw0GAbJ--0">
          <mxGeometry relative="1" as="geometry" />
        </mxCell>
        <mxCell id="1QSXjgdurOBsBtaRAweG-0" value="ExcelReport" style="swimlane;fontStyle=0;align=center;verticalAlign=top;childLayout=stackLayout;horizontal=1;startSize=26;horizontalStack=0;resizeParent=1;resizeLast=0;collapsible=1;marginBottom=0;rounded=0;shadow=0;strokeWidth=1;" vertex="1" parent="WIyWlLk6GJQsqaUBKTNV-1">
          <mxGeometry x="660" y="748" width="174" height="78" as="geometry">
            <mxRectangle x="550" y="140" width="160" height="26" as="alternateBounds" />
          </mxGeometry>
        </mxCell>
        <mxCell id="1QSXjgdurOBsBtaRAweG-1" value="" style="line;html=1;strokeWidth=1;align=left;verticalAlign=middle;spacingTop=-1;spacingLeft=3;spacingRight=3;rotatable=0;labelPosition=right;points=[];portConstraint=eastwest;" vertex="1" parent="1QSXjgdurOBsBtaRAweG-0">
          <mxGeometry y="26" width="174" height="8" as="geometry" />
        </mxCell>
        <mxCell id="1QSXjgdurOBsBtaRAweG-2" value="String generate(String content)" style="text;align=left;verticalAlign=top;spacingLeft=4;spacingRight=4;overflow=hidden;rotatable=0;points=[[0,0.5],[1,0.5]];portConstraint=eastwest;" vertex="1" parent="1QSXjgdurOBsBtaRAweG-0">
          <mxGeometry y="34" width="174" height="26" as="geometry" />
        </mxCell>
        <mxCell id="1QSXjgdurOBsBtaRAweG-10" style="edgeStyle=orthogonalEdgeStyle;rounded=0;orthogonalLoop=1;jettySize=auto;html=1;exitX=0.5;exitY=1;exitDx=0;exitDy=0;entryX=0.5;entryY=0;entryDx=0;entryDy=0;dashed=1;endArrow=block;endFill=0;" edge="1" parent="WIyWlLk6GJQsqaUBKTNV-1" source="1QSXjgdurOBsBtaRAweG-3" target="zkfFHV4jXpPFQw0GAbJ--0">
          <mxGeometry relative="1" as="geometry" />
        </mxCell>
        <mxCell id="1QSXjgdurOBsBtaRAweG-3" value="HTMLReport" style="swimlane;fontStyle=0;align=center;verticalAlign=top;childLayout=stackLayout;horizontal=1;startSize=26;horizontalStack=0;resizeParent=1;resizeLast=0;collapsible=1;marginBottom=0;rounded=0;shadow=0;strokeWidth=1;" vertex="1" parent="WIyWlLk6GJQsqaUBKTNV-1">
          <mxGeometry x="858" y="748" width="174" height="78" as="geometry">
            <mxRectangle x="550" y="140" width="160" height="26" as="alternateBounds" />
          </mxGeometry>
        </mxCell>
        <mxCell id="1QSXjgdurOBsBtaRAweG-4" value="" style="line;html=1;strokeWidth=1;align=left;verticalAlign=middle;spacingTop=-1;spacingLeft=3;spacingRight=3;rotatable=0;labelPosition=right;points=[];portConstraint=eastwest;" vertex="1" parent="1QSXjgdurOBsBtaRAweG-3">
          <mxGeometry y="26" width="174" height="8" as="geometry" />
        </mxCell>
        <mxCell id="1QSXjgdurOBsBtaRAweG-5" value="String generate(String content)" style="text;align=left;verticalAlign=top;spacingLeft=4;spacingRight=4;overflow=hidden;rotatable=0;points=[[0,0.5],[1,0.5]];portConstraint=eastwest;" vertex="1" parent="1QSXjgdurOBsBtaRAweG-3">
          <mxGeometry y="34" width="174" height="26" as="geometry" />
        </mxCell>
        <mxCell id="1QSXjgdurOBsBtaRAweG-14" style="edgeStyle=orthogonalEdgeStyle;rounded=0;orthogonalLoop=1;jettySize=auto;html=1;exitX=0.5;exitY=1;exitDx=0;exitDy=0;entryX=0.5;entryY=0;entryDx=0;entryDy=0;dashed=1;endArrow=open;endFill=0;" edge="1" parent="WIyWlLk6GJQsqaUBKTNV-1" source="1QSXjgdurOBsBtaRAweG-11" target="zkfFHV4jXpPFQw0GAbJ--17">
          <mxGeometry relative="1" as="geometry" />
        </mxCell>
        <mxCell id="1QSXjgdurOBsBtaRAweG-15" style="edgeStyle=orthogonalEdgeStyle;rounded=0;orthogonalLoop=1;jettySize=auto;html=1;exitX=0.5;exitY=1;exitDx=0;exitDy=0;entryX=0.5;entryY=0;entryDx=0;entryDy=0;dashed=1;endArrow=open;endFill=0;" edge="1" parent="WIyWlLk6GJQsqaUBKTNV-1" source="1QSXjgdurOBsBtaRAweG-11" target="1QSXjgdurOBsBtaRAweG-0">
          <mxGeometry relative="1" as="geometry" />
        </mxCell>
        <mxCell id="1QSXjgdurOBsBtaRAweG-16" style="edgeStyle=orthogonalEdgeStyle;rounded=0;orthogonalLoop=1;jettySize=auto;html=1;exitX=0.5;exitY=1;exitDx=0;exitDy=0;dashed=1;endArrow=open;endFill=0;" edge="1" parent="WIyWlLk6GJQsqaUBKTNV-1" source="1QSXjgdurOBsBtaRAweG-11" target="1QSXjgdurOBsBtaRAweG-3">
          <mxGeometry relative="1" as="geometry" />
        </mxCell>
        <mxCell id="1QSXjgdurOBsBtaRAweG-11" value="ReportFactory" style="swimlane;fontStyle=2;align=center;verticalAlign=top;childLayout=stackLayout;horizontal=1;startSize=26;horizontalStack=0;resizeParent=1;resizeLast=0;collapsible=1;marginBottom=0;rounded=0;shadow=0;strokeWidth=1;" vertex="1" parent="WIyWlLk6GJQsqaUBKTNV-1">
          <mxGeometry x="653.5" y="605" width="187" height="67" as="geometry">
            <mxRectangle x="230" y="140" width="160" height="26" as="alternateBounds" />
          </mxGeometry>
        </mxCell>
        <mxCell id="1QSXjgdurOBsBtaRAweG-12" value="" style="line;html=1;strokeWidth=1;align=left;verticalAlign=middle;spacingTop=-1;spacingLeft=3;spacingRight=3;rotatable=0;labelPosition=right;points=[];portConstraint=eastwest;" vertex="1" parent="1QSXjgdurOBsBtaRAweG-11">
          <mxGeometry y="26" width="187" height="8" as="geometry" />
        </mxCell>
        <mxCell id="1QSXjgdurOBsBtaRAweG-13" value="IReport createReport(String type)" style="text;align=left;verticalAlign=top;spacingLeft=4;spacingRight=4;overflow=hidden;rotatable=0;points=[[0,0.5],[1,0.5]];portConstraint=eastwest;" vertex="1" parent="1QSXjgdurOBsBtaRAweG-11">
          <mxGeometry y="34" width="187" height="26" as="geometry" />
        </mxCell>
        <mxCell id="1QSXjgdurOBsBtaRAweG-69" style="edgeStyle=orthogonalEdgeStyle;rounded=0;orthogonalLoop=1;jettySize=auto;html=1;exitX=0.5;exitY=0;exitDx=0;exitDy=0;entryX=0;entryY=0.5;entryDx=0;entryDy=0;dashed=1;startArrow=block;startFill=0;endArrow=none;endFill=0;" edge="1" parent="WIyWlLk6GJQsqaUBKTNV-1" source="1QSXjgdurOBsBtaRAweG-17" target="1QSXjgdurOBsBtaRAweG-28">
          <mxGeometry relative="1" as="geometry" />
        </mxCell>
        <mxCell id="1QSXjgdurOBsBtaRAweG-70" style="edgeStyle=orthogonalEdgeStyle;rounded=0;orthogonalLoop=1;jettySize=auto;html=1;exitX=0.75;exitY=0;exitDx=0;exitDy=0;entryX=0;entryY=0.5;entryDx=0;entryDy=0;dashed=1;startArrow=block;startFill=0;endArrow=none;endFill=0;" edge="1" parent="WIyWlLk6GJQsqaUBKTNV-1" source="1QSXjgdurOBsBtaRAweG-17" target="1QSXjgdurOBsBtaRAweG-40">
          <mxGeometry relative="1" as="geometry" />
        </mxCell>
        <mxCell id="1QSXjgdurOBsBtaRAweG-17" value="IStandardReport" style="swimlane;fontStyle=2;align=center;verticalAlign=top;childLayout=stackLayout;horizontal=1;startSize=26;horizontalStack=0;resizeParent=1;resizeLast=0;collapsible=1;marginBottom=0;rounded=0;shadow=0;strokeWidth=1;" vertex="1" parent="WIyWlLk6GJQsqaUBKTNV-1">
          <mxGeometry x="1125.25" y="478.5" width="220" height="67" as="geometry">
            <mxRectangle x="230" y="140" width="160" height="26" as="alternateBounds" />
          </mxGeometry>
        </mxCell>
        <mxCell id="1QSXjgdurOBsBtaRAweG-18" value="" style="line;html=1;strokeWidth=1;align=left;verticalAlign=middle;spacingTop=-1;spacingLeft=3;spacingRight=3;rotatable=0;labelPosition=right;points=[];portConstraint=eastwest;" vertex="1" parent="1QSXjgdurOBsBtaRAweG-17">
          <mxGeometry y="26" width="220" height="8" as="geometry" />
        </mxCell>
        <mxCell id="1QSXjgdurOBsBtaRAweG-19" value="String createStandard(String content)" style="text;align=left;verticalAlign=top;spacingLeft=4;spacingRight=4;overflow=hidden;rotatable=0;points=[[0,0.5],[1,0.5]];portConstraint=eastwest;" vertex="1" parent="1QSXjgdurOBsBtaRAweG-17">
          <mxGeometry y="34" width="220" height="26" as="geometry" />
        </mxCell>
        <mxCell id="1QSXjgdurOBsBtaRAweG-20" value="IDetailedReport" style="swimlane;fontStyle=2;align=center;verticalAlign=top;childLayout=stackLayout;horizontal=1;startSize=26;horizontalStack=0;resizeParent=1;resizeLast=0;collapsible=1;marginBottom=0;rounded=0;shadow=0;strokeWidth=1;" vertex="1" parent="WIyWlLk6GJQsqaUBKTNV-1">
          <mxGeometry x="1125.25" y="566.5" width="220" height="67" as="geometry">
            <mxRectangle x="230" y="140" width="160" height="26" as="alternateBounds" />
          </mxGeometry>
        </mxCell>
        <mxCell id="1QSXjgdurOBsBtaRAweG-21" value="" style="line;html=1;strokeWidth=1;align=left;verticalAlign=middle;spacingTop=-1;spacingLeft=3;spacingRight=3;rotatable=0;labelPosition=right;points=[];portConstraint=eastwest;" vertex="1" parent="1QSXjgdurOBsBtaRAweG-20">
          <mxGeometry y="26" width="220" height="8" as="geometry" />
        </mxCell>
        <mxCell id="1QSXjgdurOBsBtaRAweG-22" value="String createDetailed(String content)" style="text;align=left;verticalAlign=top;spacingLeft=4;spacingRight=4;overflow=hidden;rotatable=0;points=[[0,0.5],[1,0.5]];portConstraint=eastwest;" vertex="1" parent="1QSXjgdurOBsBtaRAweG-20">
          <mxGeometry y="34" width="220" height="26" as="geometry" />
        </mxCell>
        <mxCell id="1QSXjgdurOBsBtaRAweG-75" style="edgeStyle=orthogonalEdgeStyle;rounded=0;orthogonalLoop=1;jettySize=auto;html=1;exitX=0.5;exitY=1;exitDx=0;exitDy=0;entryX=0;entryY=0.5;entryDx=0;entryDy=0;dashed=1;startArrow=block;startFill=0;endArrow=none;endFill=0;" edge="1" parent="WIyWlLk6GJQsqaUBKTNV-1" source="1QSXjgdurOBsBtaRAweG-23" target="1QSXjgdurOBsBtaRAweG-55">
          <mxGeometry relative="1" as="geometry" />
        </mxCell>
        <mxCell id="1QSXjgdurOBsBtaRAweG-76" style="edgeStyle=orthogonalEdgeStyle;rounded=0;orthogonalLoop=1;jettySize=auto;html=1;exitX=0.75;exitY=1;exitDx=0;exitDy=0;entryX=0;entryY=0.5;entryDx=0;entryDy=0;dashed=1;startArrow=block;startFill=0;endArrow=none;endFill=0;" edge="1" parent="WIyWlLk6GJQsqaUBKTNV-1" source="1QSXjgdurOBsBtaRAweG-23" target="1QSXjgdurOBsBtaRAweG-46">
          <mxGeometry relative="1" as="geometry" />
        </mxCell>
        <mxCell id="1QSXjgdurOBsBtaRAweG-23" value="ISummaryReport" style="swimlane;fontStyle=2;align=center;verticalAlign=top;childLayout=stackLayout;horizontal=1;startSize=26;horizontalStack=0;resizeParent=1;resizeLast=0;collapsible=1;marginBottom=0;rounded=0;shadow=0;strokeWidth=1;" vertex="1" parent="WIyWlLk6GJQsqaUBKTNV-1">
          <mxGeometry x="1125.25" y="654.5" width="220" height="67" as="geometry">
            <mxRectangle x="230" y="140" width="160" height="26" as="alternateBounds" />
          </mxGeometry>
        </mxCell>
        <mxCell id="1QSXjgdurOBsBtaRAweG-24" value="" style="line;html=1;strokeWidth=1;align=left;verticalAlign=middle;spacingTop=-1;spacingLeft=3;spacingRight=3;rotatable=0;labelPosition=right;points=[];portConstraint=eastwest;" vertex="1" parent="1QSXjgdurOBsBtaRAweG-23">
          <mxGeometry y="26" width="220" height="8" as="geometry" />
        </mxCell>
        <mxCell id="1QSXjgdurOBsBtaRAweG-25" value="String createSummary(String content)" style="text;align=left;verticalAlign=top;spacingLeft=4;spacingRight=4;overflow=hidden;rotatable=0;points=[[0,0.5],[1,0.5]];portConstraint=eastwest;" vertex="1" parent="1QSXjgdurOBsBtaRAweG-23">
          <mxGeometry y="34" width="220" height="26" as="geometry" />
        </mxCell>
        <mxCell id="1QSXjgdurOBsBtaRAweG-26" value="PDFStandarReport" style="swimlane;fontStyle=0;align=center;verticalAlign=top;childLayout=stackLayout;horizontal=1;startSize=26;horizontalStack=0;resizeParent=1;resizeLast=0;collapsible=1;marginBottom=0;rounded=0;shadow=0;strokeWidth=1;" vertex="1" parent="WIyWlLk6GJQsqaUBKTNV-1">
          <mxGeometry x="1615.75" y="198" width="220" height="78" as="geometry">
            <mxRectangle x="550" y="140" width="160" height="26" as="alternateBounds" />
          </mxGeometry>
        </mxCell>
        <mxCell id="1QSXjgdurOBsBtaRAweG-27" value="" style="line;html=1;strokeWidth=1;align=left;verticalAlign=middle;spacingTop=-1;spacingLeft=3;spacingRight=3;rotatable=0;labelPosition=right;points=[];portConstraint=eastwest;" vertex="1" parent="1QSXjgdurOBsBtaRAweG-26">
          <mxGeometry y="26" width="220" height="8" as="geometry" />
        </mxCell>
        <mxCell id="1QSXjgdurOBsBtaRAweG-28" value="String createStandard(String content)" style="text;align=left;verticalAlign=top;spacingLeft=4;spacingRight=4;overflow=hidden;rotatable=0;points=[[0,0.5],[1,0.5]];portConstraint=eastwest;" vertex="1" parent="1QSXjgdurOBsBtaRAweG-26">
          <mxGeometry y="34" width="220" height="26" as="geometry" />
        </mxCell>
        <mxCell id="1QSXjgdurOBsBtaRAweG-30" value="PDFDetailedReport" style="swimlane;fontStyle=0;align=center;verticalAlign=top;childLayout=stackLayout;horizontal=1;startSize=26;horizontalStack=0;resizeParent=1;resizeLast=0;collapsible=1;marginBottom=0;rounded=0;shadow=0;strokeWidth=1;" vertex="1" parent="WIyWlLk6GJQsqaUBKTNV-1">
          <mxGeometry x="1615.75" y="473" width="220" height="78" as="geometry">
            <mxRectangle x="550" y="140" width="160" height="26" as="alternateBounds" />
          </mxGeometry>
        </mxCell>
        <mxCell id="1QSXjgdurOBsBtaRAweG-31" value="" style="line;html=1;strokeWidth=1;align=left;verticalAlign=middle;spacingTop=-1;spacingLeft=3;spacingRight=3;rotatable=0;labelPosition=right;points=[];portConstraint=eastwest;" vertex="1" parent="1QSXjgdurOBsBtaRAweG-30">
          <mxGeometry y="26" width="220" height="8" as="geometry" />
        </mxCell>
        <mxCell id="1QSXjgdurOBsBtaRAweG-32" value="String createDetailed(String content)" style="text;align=left;verticalAlign=top;spacingLeft=4;spacingRight=4;overflow=hidden;rotatable=0;points=[[0,0.5],[1,0.5]];portConstraint=eastwest;" vertex="1" parent="1QSXjgdurOBsBtaRAweG-30">
          <mxGeometry y="34" width="220" height="26" as="geometry" />
        </mxCell>
        <mxCell id="1QSXjgdurOBsBtaRAweG-34" value="PDFSummaryReport" style="swimlane;fontStyle=0;align=center;verticalAlign=top;childLayout=stackLayout;horizontal=1;startSize=26;horizontalStack=0;resizeParent=1;resizeLast=0;collapsible=1;marginBottom=0;rounded=0;shadow=0;strokeWidth=1;" vertex="1" parent="WIyWlLk6GJQsqaUBKTNV-1">
          <mxGeometry x="1615.75" y="759" width="220" height="78" as="geometry">
            <mxRectangle x="550" y="140" width="160" height="26" as="alternateBounds" />
          </mxGeometry>
        </mxCell>
        <mxCell id="1QSXjgdurOBsBtaRAweG-35" value="" style="line;html=1;strokeWidth=1;align=left;verticalAlign=middle;spacingTop=-1;spacingLeft=3;spacingRight=3;rotatable=0;labelPosition=right;points=[];portConstraint=eastwest;" vertex="1" parent="1QSXjgdurOBsBtaRAweG-34">
          <mxGeometry y="26" width="220" height="8" as="geometry" />
        </mxCell>
        <mxCell id="1QSXjgdurOBsBtaRAweG-36" value="String createSummary(String content)" style="text;align=left;verticalAlign=top;spacingLeft=4;spacingRight=4;overflow=hidden;rotatable=0;points=[[0,0.5],[1,0.5]];portConstraint=eastwest;" vertex="1" parent="1QSXjgdurOBsBtaRAweG-34">
          <mxGeometry y="34" width="220" height="26" as="geometry" />
        </mxCell>
        <mxCell id="1QSXjgdurOBsBtaRAweG-38" value="ExcelStandarReport" style="swimlane;fontStyle=0;align=center;verticalAlign=top;childLayout=stackLayout;horizontal=1;startSize=26;horizontalStack=0;resizeParent=1;resizeLast=0;collapsible=1;marginBottom=0;rounded=0;shadow=0;strokeWidth=1;" vertex="1" parent="WIyWlLk6GJQsqaUBKTNV-1">
          <mxGeometry x="1615.75" y="286" width="220" height="78" as="geometry">
            <mxRectangle x="550" y="140" width="160" height="26" as="alternateBounds" />
          </mxGeometry>
        </mxCell>
        <mxCell id="1QSXjgdurOBsBtaRAweG-39" value="" style="line;html=1;strokeWidth=1;align=left;verticalAlign=middle;spacingTop=-1;spacingLeft=3;spacingRight=3;rotatable=0;labelPosition=right;points=[];portConstraint=eastwest;" vertex="1" parent="1QSXjgdurOBsBtaRAweG-38">
          <mxGeometry y="26" width="220" height="8" as="geometry" />
        </mxCell>
        <mxCell id="1QSXjgdurOBsBtaRAweG-40" value="String createStandard(String content)" style="text;align=left;verticalAlign=top;spacingLeft=4;spacingRight=4;overflow=hidden;rotatable=0;points=[[0,0.5],[1,0.5]];portConstraint=eastwest;" vertex="1" parent="1QSXjgdurOBsBtaRAweG-38">
          <mxGeometry y="34" width="220" height="26" as="geometry" />
        </mxCell>
        <mxCell id="1QSXjgdurOBsBtaRAweG-41" value="ExcelDetailedReport" style="swimlane;fontStyle=0;align=center;verticalAlign=top;childLayout=stackLayout;horizontal=1;startSize=26;horizontalStack=0;resizeParent=1;resizeLast=0;collapsible=1;marginBottom=0;rounded=0;shadow=0;strokeWidth=1;" vertex="1" parent="WIyWlLk6GJQsqaUBKTNV-1">
          <mxGeometry x="1615.75" y="566" width="220" height="78" as="geometry">
            <mxRectangle x="550" y="140" width="160" height="26" as="alternateBounds" />
          </mxGeometry>
        </mxCell>
        <mxCell id="1QSXjgdurOBsBtaRAweG-42" value="" style="line;html=1;strokeWidth=1;align=left;verticalAlign=middle;spacingTop=-1;spacingLeft=3;spacingRight=3;rotatable=0;labelPosition=right;points=[];portConstraint=eastwest;" vertex="1" parent="1QSXjgdurOBsBtaRAweG-41">
          <mxGeometry y="26" width="220" height="8" as="geometry" />
        </mxCell>
        <mxCell id="1QSXjgdurOBsBtaRAweG-43" value="String createDetailed(String content)" style="text;align=left;verticalAlign=top;spacingLeft=4;spacingRight=4;overflow=hidden;rotatable=0;points=[[0,0.5],[1,0.5]];portConstraint=eastwest;" vertex="1" parent="1QSXjgdurOBsBtaRAweG-41">
          <mxGeometry y="34" width="220" height="26" as="geometry" />
        </mxCell>
        <mxCell id="1QSXjgdurOBsBtaRAweG-44" value="ExcelSummaryReport" style="swimlane;fontStyle=0;align=center;verticalAlign=top;childLayout=stackLayout;horizontal=1;startSize=26;horizontalStack=0;resizeParent=1;resizeLast=0;collapsible=1;marginBottom=0;rounded=0;shadow=0;strokeWidth=1;" vertex="1" parent="WIyWlLk6GJQsqaUBKTNV-1">
          <mxGeometry x="1615.75" y="858" width="220" height="78" as="geometry">
            <mxRectangle x="550" y="140" width="160" height="26" as="alternateBounds" />
          </mxGeometry>
        </mxCell>
        <mxCell id="1QSXjgdurOBsBtaRAweG-45" value="" style="line;html=1;strokeWidth=1;align=left;verticalAlign=middle;spacingTop=-1;spacingLeft=3;spacingRight=3;rotatable=0;labelPosition=right;points=[];portConstraint=eastwest;" vertex="1" parent="1QSXjgdurOBsBtaRAweG-44">
          <mxGeometry y="26" width="220" height="8" as="geometry" />
        </mxCell>
        <mxCell id="1QSXjgdurOBsBtaRAweG-46" value="String createSummary(String content)" style="text;align=left;verticalAlign=top;spacingLeft=4;spacingRight=4;overflow=hidden;rotatable=0;points=[[0,0.5],[1,0.5]];portConstraint=eastwest;" vertex="1" parent="1QSXjgdurOBsBtaRAweG-44">
          <mxGeometry y="34" width="220" height="26" as="geometry" />
        </mxCell>
        <mxCell id="1QSXjgdurOBsBtaRAweG-47" value="HTMLStandarReport" style="swimlane;fontStyle=0;align=center;verticalAlign=top;childLayout=stackLayout;horizontal=1;startSize=26;horizontalStack=0;resizeParent=1;resizeLast=0;collapsible=1;marginBottom=0;rounded=0;shadow=0;strokeWidth=1;" vertex="1" parent="WIyWlLk6GJQsqaUBKTNV-1">
          <mxGeometry x="1615.75" y="374" width="220" height="78" as="geometry">
            <mxRectangle x="550" y="140" width="160" height="26" as="alternateBounds" />
          </mxGeometry>
        </mxCell>
        <mxCell id="1QSXjgdurOBsBtaRAweG-48" value="" style="line;html=1;strokeWidth=1;align=left;verticalAlign=middle;spacingTop=-1;spacingLeft=3;spacingRight=3;rotatable=0;labelPosition=right;points=[];portConstraint=eastwest;" vertex="1" parent="1QSXjgdurOBsBtaRAweG-47">
          <mxGeometry y="26" width="220" height="8" as="geometry" />
        </mxCell>
        <mxCell id="1QSXjgdurOBsBtaRAweG-49" value="String createStandard(String content)" style="text;align=left;verticalAlign=top;spacingLeft=4;spacingRight=4;overflow=hidden;rotatable=0;points=[[0,0.5],[1,0.5]];portConstraint=eastwest;" vertex="1" parent="1QSXjgdurOBsBtaRAweG-47">
          <mxGeometry y="34" width="220" height="26" as="geometry" />
        </mxCell>
        <mxCell id="1QSXjgdurOBsBtaRAweG-50" value="HTMLDetailedReport" style="swimlane;fontStyle=0;align=center;verticalAlign=top;childLayout=stackLayout;horizontal=1;startSize=26;horizontalStack=0;resizeParent=1;resizeLast=0;collapsible=1;marginBottom=0;rounded=0;shadow=0;strokeWidth=1;" vertex="1" parent="WIyWlLk6GJQsqaUBKTNV-1">
          <mxGeometry x="1615.75" y="660" width="220" height="78" as="geometry">
            <mxRectangle x="550" y="140" width="160" height="26" as="alternateBounds" />
          </mxGeometry>
        </mxCell>
        <mxCell id="1QSXjgdurOBsBtaRAweG-51" value="" style="line;html=1;strokeWidth=1;align=left;verticalAlign=middle;spacingTop=-1;spacingLeft=3;spacingRight=3;rotatable=0;labelPosition=right;points=[];portConstraint=eastwest;" vertex="1" parent="1QSXjgdurOBsBtaRAweG-50">
          <mxGeometry y="26" width="220" height="8" as="geometry" />
        </mxCell>
        <mxCell id="1QSXjgdurOBsBtaRAweG-52" value="String createDetailed(String content)" style="text;align=left;verticalAlign=top;spacingLeft=4;spacingRight=4;overflow=hidden;rotatable=0;points=[[0,0.5],[1,0.5]];portConstraint=eastwest;" vertex="1" parent="1QSXjgdurOBsBtaRAweG-50">
          <mxGeometry y="34" width="220" height="26" as="geometry" />
        </mxCell>
        <mxCell id="1QSXjgdurOBsBtaRAweG-53" value="HTMLSummaryReport" style="swimlane;fontStyle=0;align=center;verticalAlign=top;childLayout=stackLayout;horizontal=1;startSize=26;horizontalStack=0;resizeParent=1;resizeLast=0;collapsible=1;marginBottom=0;rounded=0;shadow=0;strokeWidth=1;" vertex="1" parent="WIyWlLk6GJQsqaUBKTNV-1">
          <mxGeometry x="1615.75" y="957" width="220" height="78" as="geometry">
            <mxRectangle x="550" y="140" width="160" height="26" as="alternateBounds" />
          </mxGeometry>
        </mxCell>
        <mxCell id="1QSXjgdurOBsBtaRAweG-54" value="" style="line;html=1;strokeWidth=1;align=left;verticalAlign=middle;spacingTop=-1;spacingLeft=3;spacingRight=3;rotatable=0;labelPosition=right;points=[];portConstraint=eastwest;" vertex="1" parent="1QSXjgdurOBsBtaRAweG-53">
          <mxGeometry y="26" width="220" height="8" as="geometry" />
        </mxCell>
        <mxCell id="1QSXjgdurOBsBtaRAweG-55" value="String createSummary(String content)" style="text;align=left;verticalAlign=top;spacingLeft=4;spacingRight=4;overflow=hidden;rotatable=0;points=[[0,0.5],[1,0.5]];portConstraint=eastwest;" vertex="1" parent="1QSXjgdurOBsBtaRAweG-53">
          <mxGeometry y="34" width="220" height="26" as="geometry" />
        </mxCell>
        <mxCell id="1QSXjgdurOBsBtaRAweG-71" style="edgeStyle=orthogonalEdgeStyle;rounded=0;orthogonalLoop=1;jettySize=auto;html=1;exitX=1;exitY=0.5;exitDx=0;exitDy=0;entryX=0;entryY=0.5;entryDx=0;entryDy=0;dashed=1;startArrow=block;startFill=0;endArrow=none;endFill=0;" edge="1" parent="WIyWlLk6GJQsqaUBKTNV-1" source="1QSXjgdurOBsBtaRAweG-19" target="1QSXjgdurOBsBtaRAweG-49">
          <mxGeometry relative="1" as="geometry">
            <Array as="points">
              <mxPoint x="1417.75" y="526" />
              <mxPoint x="1417.75" y="421" />
            </Array>
          </mxGeometry>
        </mxCell>
        <mxCell id="1QSXjgdurOBsBtaRAweG-72" style="edgeStyle=orthogonalEdgeStyle;rounded=0;orthogonalLoop=1;jettySize=auto;html=1;exitX=1;exitY=0.5;exitDx=0;exitDy=0;entryX=0;entryY=0.5;entryDx=0;entryDy=0;dashed=1;startArrow=block;startFill=0;endArrow=none;endFill=0;" edge="1" parent="WIyWlLk6GJQsqaUBKTNV-1" source="1QSXjgdurOBsBtaRAweG-22" target="1QSXjgdurOBsBtaRAweG-32">
          <mxGeometry relative="1" as="geometry" />
        </mxCell>
        <mxCell id="1QSXjgdurOBsBtaRAweG-73" style="edgeStyle=orthogonalEdgeStyle;rounded=0;orthogonalLoop=1;jettySize=auto;html=1;exitX=1;exitY=0.5;exitDx=0;exitDy=0;entryX=0;entryY=0.5;entryDx=0;entryDy=0;dashed=1;startArrow=block;startFill=0;endArrow=none;endFill=0;" edge="1" parent="WIyWlLk6GJQsqaUBKTNV-1" source="1QSXjgdurOBsBtaRAweG-22" target="1QSXjgdurOBsBtaRAweG-43">
          <mxGeometry relative="1" as="geometry" />
        </mxCell>
        <mxCell id="1QSXjgdurOBsBtaRAweG-74" style="edgeStyle=orthogonalEdgeStyle;rounded=0;orthogonalLoop=1;jettySize=auto;html=1;exitX=1;exitY=0.5;exitDx=0;exitDy=0;entryX=0;entryY=0.5;entryDx=0;entryDy=0;dashed=1;startArrow=block;startFill=0;endArrow=none;endFill=0;" edge="1" parent="WIyWlLk6GJQsqaUBKTNV-1" source="1QSXjgdurOBsBtaRAweG-22" target="1QSXjgdurOBsBtaRAweG-52">
          <mxGeometry relative="1" as="geometry" />
        </mxCell>
        <mxCell id="1QSXjgdurOBsBtaRAweG-77" style="edgeStyle=orthogonalEdgeStyle;rounded=0;orthogonalLoop=1;jettySize=auto;html=1;exitX=1;exitY=0.5;exitDx=0;exitDy=0;entryX=0;entryY=0.5;entryDx=0;entryDy=0;dashed=1;startArrow=block;startFill=0;endArrow=none;endFill=0;" edge="1" parent="WIyWlLk6GJQsqaUBKTNV-1" source="1QSXjgdurOBsBtaRAweG-25" target="1QSXjgdurOBsBtaRAweG-36">
          <mxGeometry relative="1" as="geometry">
            <Array as="points">
              <mxPoint x="1417.75" y="701" />
              <mxPoint x="1417.75" y="806" />
            </Array>
          </mxGeometry>
        </mxCell>
        <mxCell id="1QSXjgdurOBsBtaRAweG-78" value="IReportStyleFactory&#xa;" style="swimlane;fontStyle=2;align=center;verticalAlign=top;childLayout=stackLayout;horizontal=1;startSize=26;horizontalStack=0;resizeParent=1;resizeLast=0;collapsible=1;marginBottom=0;rounded=0;shadow=0;strokeWidth=1;" vertex="1" parent="WIyWlLk6GJQsqaUBKTNV-1">
          <mxGeometry x="1111" y="1221" width="248.5" height="112" as="geometry">
            <mxRectangle x="230" y="140" width="160" height="26" as="alternateBounds" />
          </mxGeometry>
        </mxCell>
        <mxCell id="1QSXjgdurOBsBtaRAweG-79" value="" style="line;html=1;strokeWidth=1;align=left;verticalAlign=middle;spacingTop=-1;spacingLeft=3;spacingRight=3;rotatable=0;labelPosition=right;points=[];portConstraint=eastwest;" vertex="1" parent="1QSXjgdurOBsBtaRAweG-78">
          <mxGeometry y="26" width="248.5" height="8" as="geometry" />
        </mxCell>
        <mxCell id="1QSXjgdurOBsBtaRAweG-80" value="StandardReport createStandardReport()" style="text;align=left;verticalAlign=top;spacingLeft=4;spacingRight=4;overflow=hidden;rotatable=0;points=[[0,0.5],[1,0.5]];portConstraint=eastwest;" vertex="1" parent="1QSXjgdurOBsBtaRAweG-78">
          <mxGeometry y="34" width="248.5" height="26" as="geometry" />
        </mxCell>
        <mxCell id="1QSXjgdurOBsBtaRAweG-81" value="DetailedReport createDetailedReport()" style="text;align=left;verticalAlign=top;spacingLeft=4;spacingRight=4;overflow=hidden;rotatable=0;points=[[0,0.5],[1,0.5]];portConstraint=eastwest;" vertex="1" parent="1QSXjgdurOBsBtaRAweG-78">
          <mxGeometry y="60" width="248.5" height="26" as="geometry" />
        </mxCell>
        <mxCell id="1QSXjgdurOBsBtaRAweG-82" value="SummaryReport createSummaryReport()" style="text;align=left;verticalAlign=top;spacingLeft=4;spacingRight=4;overflow=hidden;rotatable=0;points=[[0,0.5],[1,0.5]];portConstraint=eastwest;" vertex="1" parent="1QSXjgdurOBsBtaRAweG-78">
          <mxGeometry y="86" width="248.5" height="26" as="geometry" />
        </mxCell>
        <mxCell id="1QSXjgdurOBsBtaRAweG-83" value="PDFReportFactory" style="swimlane;fontStyle=2;align=center;verticalAlign=top;childLayout=stackLayout;horizontal=1;startSize=26;horizontalStack=0;resizeParent=1;resizeLast=0;collapsible=1;marginBottom=0;rounded=0;shadow=0;strokeWidth=1;" vertex="1" parent="WIyWlLk6GJQsqaUBKTNV-1">
          <mxGeometry x="1601.5" y="1089" width="248.5" height="112" as="geometry">
            <mxRectangle x="230" y="140" width="160" height="26" as="alternateBounds" />
          </mxGeometry>
        </mxCell>
        <mxCell id="1QSXjgdurOBsBtaRAweG-84" value="" style="line;html=1;strokeWidth=1;align=left;verticalAlign=middle;spacingTop=-1;spacingLeft=3;spacingRight=3;rotatable=0;labelPosition=right;points=[];portConstraint=eastwest;" vertex="1" parent="1QSXjgdurOBsBtaRAweG-83">
          <mxGeometry y="26" width="248.5" height="8" as="geometry" />
        </mxCell>
        <mxCell id="1QSXjgdurOBsBtaRAweG-85" value="StandardReport createStandardReport()" style="text;align=left;verticalAlign=top;spacingLeft=4;spacingRight=4;overflow=hidden;rotatable=0;points=[[0,0.5],[1,0.5]];portConstraint=eastwest;" vertex="1" parent="1QSXjgdurOBsBtaRAweG-83">
          <mxGeometry y="34" width="248.5" height="26" as="geometry" />
        </mxCell>
        <mxCell id="1QSXjgdurOBsBtaRAweG-86" value="DetailedReport createDetailedReport()" style="text;align=left;verticalAlign=top;spacingLeft=4;spacingRight=4;overflow=hidden;rotatable=0;points=[[0,0.5],[1,0.5]];portConstraint=eastwest;" vertex="1" parent="1QSXjgdurOBsBtaRAweG-83">
          <mxGeometry y="60" width="248.5" height="26" as="geometry" />
        </mxCell>
        <mxCell id="1QSXjgdurOBsBtaRAweG-87" value="SummaryReport createSummaryReport()" style="text;align=left;verticalAlign=top;spacingLeft=4;spacingRight=4;overflow=hidden;rotatable=0;points=[[0,0.5],[1,0.5]];portConstraint=eastwest;" vertex="1" parent="1QSXjgdurOBsBtaRAweG-83">
          <mxGeometry y="86" width="248.5" height="26" as="geometry" />
        </mxCell>
        <mxCell id="1QSXjgdurOBsBtaRAweG-96" value="ExcelReportFactory" style="swimlane;fontStyle=2;align=center;verticalAlign=top;childLayout=stackLayout;horizontal=1;startSize=26;horizontalStack=0;resizeParent=1;resizeLast=0;collapsible=1;marginBottom=0;rounded=0;shadow=0;strokeWidth=1;" vertex="1" parent="WIyWlLk6GJQsqaUBKTNV-1">
          <mxGeometry x="1601.5" y="1221" width="248.5" height="112" as="geometry">
            <mxRectangle x="230" y="140" width="160" height="26" as="alternateBounds" />
          </mxGeometry>
        </mxCell>
        <mxCell id="1QSXjgdurOBsBtaRAweG-97" value="" style="line;html=1;strokeWidth=1;align=left;verticalAlign=middle;spacingTop=-1;spacingLeft=3;spacingRight=3;rotatable=0;labelPosition=right;points=[];portConstraint=eastwest;" vertex="1" parent="1QSXjgdurOBsBtaRAweG-96">
          <mxGeometry y="26" width="248.5" height="8" as="geometry" />
        </mxCell>
        <mxCell id="1QSXjgdurOBsBtaRAweG-98" value="StandardReport createStandardReport()" style="text;align=left;verticalAlign=top;spacingLeft=4;spacingRight=4;overflow=hidden;rotatable=0;points=[[0,0.5],[1,0.5]];portConstraint=eastwest;" vertex="1" parent="1QSXjgdurOBsBtaRAweG-96">
          <mxGeometry y="34" width="248.5" height="26" as="geometry" />
        </mxCell>
        <mxCell id="1QSXjgdurOBsBtaRAweG-99" value="DetailedReport createDetailedReport()" style="text;align=left;verticalAlign=top;spacingLeft=4;spacingRight=4;overflow=hidden;rotatable=0;points=[[0,0.5],[1,0.5]];portConstraint=eastwest;" vertex="1" parent="1QSXjgdurOBsBtaRAweG-96">
          <mxGeometry y="60" width="248.5" height="26" as="geometry" />
        </mxCell>
        <mxCell id="1QSXjgdurOBsBtaRAweG-100" value="SummaryReport createSummaryReport()" style="text;align=left;verticalAlign=top;spacingLeft=4;spacingRight=4;overflow=hidden;rotatable=0;points=[[0,0.5],[1,0.5]];portConstraint=eastwest;" vertex="1" parent="1QSXjgdurOBsBtaRAweG-96">
          <mxGeometry y="86" width="248.5" height="26" as="geometry" />
        </mxCell>
        <mxCell id="1QSXjgdurOBsBtaRAweG-101" value="HTMLReportFactory" style="swimlane;fontStyle=2;align=center;verticalAlign=top;childLayout=stackLayout;horizontal=1;startSize=26;horizontalStack=0;resizeParent=1;resizeLast=0;collapsible=1;marginBottom=0;rounded=0;shadow=0;strokeWidth=1;" vertex="1" parent="WIyWlLk6GJQsqaUBKTNV-1">
          <mxGeometry x="1601.5" y="1353" width="248.5" height="112" as="geometry">
            <mxRectangle x="230" y="140" width="160" height="26" as="alternateBounds" />
          </mxGeometry>
        </mxCell>
        <mxCell id="1QSXjgdurOBsBtaRAweG-103" value="StandardReport createStandardReport()" style="text;align=left;verticalAlign=top;spacingLeft=4;spacingRight=4;overflow=hidden;rotatable=0;points=[[0,0.5],[1,0.5]];portConstraint=eastwest;" vertex="1" parent="1QSXjgdurOBsBtaRAweG-101">
          <mxGeometry y="26" width="248.5" height="26" as="geometry" />
        </mxCell>
        <mxCell id="1QSXjgdurOBsBtaRAweG-104" value="DetailedReport createDetailedReport()" style="text;align=left;verticalAlign=top;spacingLeft=4;spacingRight=4;overflow=hidden;rotatable=0;points=[[0,0.5],[1,0.5]];portConstraint=eastwest;" vertex="1" parent="1QSXjgdurOBsBtaRAweG-101">
          <mxGeometry y="52" width="248.5" height="26" as="geometry" />
        </mxCell>
        <mxCell id="1QSXjgdurOBsBtaRAweG-105" value="SummaryReport createSummaryReport()" style="text;align=left;verticalAlign=top;spacingLeft=4;spacingRight=4;overflow=hidden;rotatable=0;points=[[0,0.5],[1,0.5]];portConstraint=eastwest;" vertex="1" parent="1QSXjgdurOBsBtaRAweG-101">
          <mxGeometry y="78" width="248.5" height="26" as="geometry" />
        </mxCell>
        <mxCell id="1QSXjgdurOBsBtaRAweG-102" value="" style="line;html=1;strokeWidth=1;align=left;verticalAlign=middle;spacingTop=-1;spacingLeft=3;spacingRight=3;rotatable=0;labelPosition=right;points=[];portConstraint=eastwest;" vertex="1" parent="1QSXjgdurOBsBtaRAweG-101">
          <mxGeometry y="104" width="248.5" height="8" as="geometry" />
        </mxCell>
        <mxCell id="1QSXjgdurOBsBtaRAweG-106" style="edgeStyle=orthogonalEdgeStyle;rounded=0;orthogonalLoop=1;jettySize=auto;html=1;exitX=1;exitY=0.5;exitDx=0;exitDy=0;entryX=0;entryY=0.5;entryDx=0;entryDy=0;dashed=1;endArrow=none;endFill=0;startArrow=block;startFill=0;" edge="1" parent="WIyWlLk6GJQsqaUBKTNV-1" source="1QSXjgdurOBsBtaRAweG-81" target="1QSXjgdurOBsBtaRAweG-86">
          <mxGeometry relative="1" as="geometry" />
        </mxCell>
        <mxCell id="1QSXjgdurOBsBtaRAweG-107" style="edgeStyle=orthogonalEdgeStyle;rounded=0;orthogonalLoop=1;jettySize=auto;html=1;exitX=1;exitY=0.5;exitDx=0;exitDy=0;entryX=0;entryY=0.5;entryDx=0;entryDy=0;dashed=1;endArrow=none;endFill=0;startArrow=block;startFill=0;" edge="1" parent="WIyWlLk6GJQsqaUBKTNV-1" source="1QSXjgdurOBsBtaRAweG-81" target="1QSXjgdurOBsBtaRAweG-99">
          <mxGeometry relative="1" as="geometry" />
        </mxCell>
        <mxCell id="1QSXjgdurOBsBtaRAweG-108" style="edgeStyle=orthogonalEdgeStyle;rounded=0;orthogonalLoop=1;jettySize=auto;html=1;exitX=1;exitY=0.5;exitDx=0;exitDy=0;entryX=0;entryY=0.5;entryDx=0;entryDy=0;dashed=1;endArrow=none;endFill=0;startArrow=block;startFill=0;" edge="1" parent="WIyWlLk6GJQsqaUBKTNV-1" source="1QSXjgdurOBsBtaRAweG-81" target="1QSXjgdurOBsBtaRAweG-104">
          <mxGeometry relative="1" as="geometry" />
        </mxCell>
        <mxCell id="1QSXjgdurOBsBtaRAweG-109" value="IReportBuilder" style="swimlane;fontStyle=2;align=center;verticalAlign=top;childLayout=stackLayout;horizontal=1;startSize=26;horizontalStack=0;resizeParent=1;resizeLast=0;collapsible=1;marginBottom=0;rounded=0;shadow=0;strokeWidth=1;" vertex="1" parent="WIyWlLk6GJQsqaUBKTNV-1">
          <mxGeometry x="2010.97" y="714" width="165" height="98" as="geometry">
            <mxRectangle x="230" y="140" width="160" height="26" as="alternateBounds" />
          </mxGeometry>
        </mxCell>
        <mxCell id="1QSXjgdurOBsBtaRAweG-110" value="" style="line;html=1;strokeWidth=1;align=left;verticalAlign=middle;spacingTop=-1;spacingLeft=3;spacingRight=3;rotatable=0;labelPosition=right;points=[];portConstraint=eastwest;" vertex="1" parent="1QSXjgdurOBsBtaRAweG-109">
          <mxGeometry y="26" width="165" height="8" as="geometry" />
        </mxCell>
        <mxCell id="1QSXjgdurOBsBtaRAweG-111" value="CustomReport build()" style="text;align=left;verticalAlign=top;spacingLeft=4;spacingRight=4;overflow=hidden;rotatable=0;points=[[0,0.5],[1,0.5]];portConstraint=eastwest;" vertex="1" parent="1QSXjgdurOBsBtaRAweG-109">
          <mxGeometry y="34" width="165" height="26" as="geometry" />
        </mxCell>
        <mxCell id="1QSXjgdurOBsBtaRAweG-112" value="String generateReport()" style="text;align=left;verticalAlign=top;spacingLeft=4;spacingRight=4;overflow=hidden;rotatable=0;points=[[0,0.5],[1,0.5]];portConstraint=eastwest;" vertex="1" parent="1QSXjgdurOBsBtaRAweG-109">
          <mxGeometry y="60" width="165" height="26" as="geometry" />
        </mxCell>
        <mxCell id="1QSXjgdurOBsBtaRAweG-118" value="ConcreteReportBuilder" style="swimlane;fontStyle=2;align=center;verticalAlign=top;childLayout=stackLayout;horizontal=1;startSize=26;horizontalStack=0;resizeParent=1;resizeLast=0;collapsible=1;marginBottom=0;rounded=0;shadow=0;strokeWidth=1;" vertex="1" parent="WIyWlLk6GJQsqaUBKTNV-1">
          <mxGeometry x="2274.97" y="399" width="187" height="424" as="geometry">
            <mxRectangle x="230" y="140" width="160" height="26" as="alternateBounds" />
          </mxGeometry>
        </mxCell>
        <mxCell id="1QSXjgdurOBsBtaRAweG-122" value="String title" style="text;align=left;verticalAlign=top;spacingLeft=4;spacingRight=4;overflow=hidden;rotatable=0;points=[[0,0.5],[1,0.5]];portConstraint=eastwest;" vertex="1" parent="1QSXjgdurOBsBtaRAweG-118">
          <mxGeometry y="26" width="187" height="26" as="geometry" />
        </mxCell>
        <mxCell id="1QSXjgdurOBsBtaRAweG-123" value="String header" style="text;align=left;verticalAlign=top;spacingLeft=4;spacingRight=4;overflow=hidden;rotatable=0;points=[[0,0.5],[1,0.5]];portConstraint=eastwest;" vertex="1" parent="1QSXjgdurOBsBtaRAweG-118">
          <mxGeometry y="52" width="187" height="26" as="geometry" />
        </mxCell>
        <mxCell id="1QSXjgdurOBsBtaRAweG-124" value="String body" style="text;align=left;verticalAlign=top;spacingLeft=4;spacingRight=4;overflow=hidden;rotatable=0;points=[[0,0.5],[1,0.5]];portConstraint=eastwest;" vertex="1" parent="1QSXjgdurOBsBtaRAweG-118">
          <mxGeometry y="78" width="187" height="26" as="geometry" />
        </mxCell>
        <mxCell id="1QSXjgdurOBsBtaRAweG-126" value="String footer" style="text;align=left;verticalAlign=top;spacingLeft=4;spacingRight=4;overflow=hidden;rotatable=0;points=[[0,0.5],[1,0.5]];portConstraint=eastwest;" vertex="1" parent="1QSXjgdurOBsBtaRAweG-118">
          <mxGeometry y="104" width="187" height="26" as="geometry" />
        </mxCell>
        <mxCell id="1QSXjgdurOBsBtaRAweG-125" value="String format" style="text;align=left;verticalAlign=top;spacingLeft=4;spacingRight=4;overflow=hidden;rotatable=0;points=[[0,0.5],[1,0.5]];portConstraint=eastwest;" vertex="1" parent="1QSXjgdurOBsBtaRAweG-118">
          <mxGeometry y="130" width="187" height="26" as="geometry" />
        </mxCell>
        <mxCell id="1QSXjgdurOBsBtaRAweG-119" value="" style="line;html=1;strokeWidth=1;align=left;verticalAlign=middle;spacingTop=-1;spacingLeft=3;spacingRight=3;rotatable=0;labelPosition=right;points=[];portConstraint=eastwest;" vertex="1" parent="1QSXjgdurOBsBtaRAweG-118">
          <mxGeometry y="156" width="187" height="8" as="geometry" />
        </mxCell>
        <mxCell id="1QSXjgdurOBsBtaRAweG-120" value="void setTitle(String title)" style="text;align=left;verticalAlign=top;spacingLeft=4;spacingRight=4;overflow=hidden;rotatable=0;points=[[0,0.5],[1,0.5]];portConstraint=eastwest;" vertex="1" parent="1QSXjgdurOBsBtaRAweG-118">
          <mxGeometry y="164" width="187" height="26" as="geometry" />
        </mxCell>
        <mxCell id="1QSXjgdurOBsBtaRAweG-121" value="void setHeader(String header)" style="text;align=left;verticalAlign=top;spacingLeft=4;spacingRight=4;overflow=hidden;rotatable=0;points=[[0,0.5],[1,0.5]];portConstraint=eastwest;" vertex="1" parent="1QSXjgdurOBsBtaRAweG-118">
          <mxGeometry y="190" width="187" height="26" as="geometry" />
        </mxCell>
        <mxCell id="1QSXjgdurOBsBtaRAweG-128" value="void setBody(String body)" style="text;align=left;verticalAlign=top;spacingLeft=4;spacingRight=4;overflow=hidden;rotatable=0;points=[[0,0.5],[1,0.5]];portConstraint=eastwest;" vertex="1" parent="1QSXjgdurOBsBtaRAweG-118">
          <mxGeometry y="216" width="187" height="26" as="geometry" />
        </mxCell>
        <mxCell id="1QSXjgdurOBsBtaRAweG-130" value="void setFooter(String footer)" style="text;align=left;verticalAlign=top;spacingLeft=4;spacingRight=4;overflow=hidden;rotatable=0;points=[[0,0.5],[1,0.5]];portConstraint=eastwest;" vertex="1" parent="1QSXjgdurOBsBtaRAweG-118">
          <mxGeometry y="242" width="187" height="26" as="geometry" />
        </mxCell>
        <mxCell id="1QSXjgdurOBsBtaRAweG-132" value="void setFormat(String format)" style="text;align=left;verticalAlign=top;spacingLeft=4;spacingRight=4;overflow=hidden;rotatable=0;points=[[0,0.5],[1,0.5]];portConstraint=eastwest;" vertex="1" parent="1QSXjgdurOBsBtaRAweG-118">
          <mxGeometry y="268" width="187" height="26" as="geometry" />
        </mxCell>
        <mxCell id="1QSXjgdurOBsBtaRAweG-131" value="CustomReport build()" style="text;align=left;verticalAlign=top;spacingLeft=4;spacingRight=4;overflow=hidden;rotatable=0;points=[[0,0.5],[1,0.5]];portConstraint=eastwest;" vertex="1" parent="1QSXjgdurOBsBtaRAweG-118">
          <mxGeometry y="294" width="187" height="26" as="geometry" />
        </mxCell>
        <mxCell id="1QSXjgdurOBsBtaRAweG-129" value="String generateReport()" style="text;align=left;verticalAlign=top;spacingLeft=4;spacingRight=4;overflow=hidden;rotatable=0;points=[[0,0.5],[1,0.5]];portConstraint=eastwest;" vertex="1" parent="1QSXjgdurOBsBtaRAweG-118">
          <mxGeometry y="320" width="187" height="26" as="geometry" />
        </mxCell>
        <mxCell id="1QSXjgdurOBsBtaRAweG-127" value="String generatePDF()" style="text;align=left;verticalAlign=top;spacingLeft=4;spacingRight=4;overflow=hidden;rotatable=0;points=[[0,0.5],[1,0.5]];portConstraint=eastwest;" vertex="1" parent="1QSXjgdurOBsBtaRAweG-118">
          <mxGeometry y="346" width="187" height="26" as="geometry" />
        </mxCell>
        <mxCell id="1QSXjgdurOBsBtaRAweG-134" value="String generateExcel()" style="text;align=left;verticalAlign=top;spacingLeft=4;spacingRight=4;overflow=hidden;rotatable=0;points=[[0,0.5],[1,0.5]];portConstraint=eastwest;" vertex="1" parent="1QSXjgdurOBsBtaRAweG-118">
          <mxGeometry y="372" width="187" height="26" as="geometry" />
        </mxCell>
        <mxCell id="1QSXjgdurOBsBtaRAweG-133" value="String generateHTML()" style="text;align=left;verticalAlign=top;spacingLeft=4;spacingRight=4;overflow=hidden;rotatable=0;points=[[0,0.5],[1,0.5]];portConstraint=eastwest;" vertex="1" parent="1QSXjgdurOBsBtaRAweG-118">
          <mxGeometry y="398" width="187" height="26" as="geometry" />
        </mxCell>
        <mxCell id="1QSXjgdurOBsBtaRAweG-135" style="edgeStyle=orthogonalEdgeStyle;rounded=0;orthogonalLoop=1;jettySize=auto;html=1;exitX=0;exitY=0.5;exitDx=0;exitDy=0;dashed=1;endArrow=block;endFill=0;" edge="1" parent="WIyWlLk6GJQsqaUBKTNV-1" source="1QSXjgdurOBsBtaRAweG-120" target="1QSXjgdurOBsBtaRAweG-109">
          <mxGeometry relative="1" as="geometry" />
        </mxCell>
        <mxCell id="1QSXjgdurOBsBtaRAweG-136" value="CustomReport" style="swimlane;fontStyle=2;align=center;verticalAlign=top;childLayout=stackLayout;horizontal=1;startSize=26;horizontalStack=0;resizeParent=1;resizeLast=0;collapsible=1;marginBottom=0;rounded=0;shadow=0;strokeWidth=1;" vertex="1" parent="WIyWlLk6GJQsqaUBKTNV-1">
          <mxGeometry x="2274.97" y="856" width="187" height="176" as="geometry">
            <mxRectangle x="230" y="140" width="160" height="26" as="alternateBounds" />
          </mxGeometry>
        </mxCell>
        <mxCell id="1QSXjgdurOBsBtaRAweG-137" value="String title" style="text;align=left;verticalAlign=top;spacingLeft=4;spacingRight=4;overflow=hidden;rotatable=0;points=[[0,0.5],[1,0.5]];portConstraint=eastwest;" vertex="1" parent="1QSXjgdurOBsBtaRAweG-136">
          <mxGeometry y="26" width="187" height="26" as="geometry" />
        </mxCell>
        <mxCell id="1QSXjgdurOBsBtaRAweG-138" value="String header" style="text;align=left;verticalAlign=top;spacingLeft=4;spacingRight=4;overflow=hidden;rotatable=0;points=[[0,0.5],[1,0.5]];portConstraint=eastwest;" vertex="1" parent="1QSXjgdurOBsBtaRAweG-136">
          <mxGeometry y="52" width="187" height="26" as="geometry" />
        </mxCell>
        <mxCell id="1QSXjgdurOBsBtaRAweG-139" value="String body" style="text;align=left;verticalAlign=top;spacingLeft=4;spacingRight=4;overflow=hidden;rotatable=0;points=[[0,0.5],[1,0.5]];portConstraint=eastwest;" vertex="1" parent="1QSXjgdurOBsBtaRAweG-136">
          <mxGeometry y="78" width="187" height="26" as="geometry" />
        </mxCell>
        <mxCell id="1QSXjgdurOBsBtaRAweG-140" value="String footer" style="text;align=left;verticalAlign=top;spacingLeft=4;spacingRight=4;overflow=hidden;rotatable=0;points=[[0,0.5],[1,0.5]];portConstraint=eastwest;" vertex="1" parent="1QSXjgdurOBsBtaRAweG-136">
          <mxGeometry y="104" width="187" height="26" as="geometry" />
        </mxCell>
        <mxCell id="1QSXjgdurOBsBtaRAweG-142" value="" style="line;html=1;strokeWidth=1;align=left;verticalAlign=middle;spacingTop=-1;spacingLeft=3;spacingRight=3;rotatable=0;labelPosition=right;points=[];portConstraint=eastwest;" vertex="1" parent="1QSXjgdurOBsBtaRAweG-136">
          <mxGeometry y="130" width="187" height="8" as="geometry" />
        </mxCell>
        <mxCell id="1QSXjgdurOBsBtaRAweG-150" value="String generate()" style="text;align=left;verticalAlign=top;spacingLeft=4;spacingRight=4;overflow=hidden;rotatable=0;points=[[0,0.5],[1,0.5]];portConstraint=eastwest;" vertex="1" parent="1QSXjgdurOBsBtaRAweG-136">
          <mxGeometry y="138" width="187" height="26" as="geometry" />
        </mxCell>
        <mxCell id="1QSXjgdurOBsBtaRAweG-153" value="ReportData" style="swimlane;fontStyle=2;align=center;verticalAlign=top;childLayout=stackLayout;horizontal=1;startSize=26;horizontalStack=0;resizeParent=1;resizeLast=0;collapsible=1;marginBottom=0;rounded=0;shadow=0;strokeWidth=1;" vertex="1" parent="WIyWlLk6GJQsqaUBKTNV-1">
          <mxGeometry x="1988.97" y="933" width="187" height="242" as="geometry">
            <mxRectangle x="230" y="140" width="160" height="26" as="alternateBounds" />
          </mxGeometry>
        </mxCell>
        <mxCell id="1QSXjgdurOBsBtaRAweG-154" value="String title" style="text;align=left;verticalAlign=top;spacingLeft=4;spacingRight=4;overflow=hidden;rotatable=0;points=[[0,0.5],[1,0.5]];portConstraint=eastwest;" vertex="1" parent="1QSXjgdurOBsBtaRAweG-153">
          <mxGeometry y="26" width="187" height="26" as="geometry" />
        </mxCell>
        <mxCell id="1QSXjgdurOBsBtaRAweG-155" value="String header" style="text;align=left;verticalAlign=top;spacingLeft=4;spacingRight=4;overflow=hidden;rotatable=0;points=[[0,0.5],[1,0.5]];portConstraint=eastwest;" vertex="1" parent="1QSXjgdurOBsBtaRAweG-153">
          <mxGeometry y="52" width="187" height="26" as="geometry" />
        </mxCell>
        <mxCell id="1QSXjgdurOBsBtaRAweG-156" value="String body" style="text;align=left;verticalAlign=top;spacingLeft=4;spacingRight=4;overflow=hidden;rotatable=0;points=[[0,0.5],[1,0.5]];portConstraint=eastwest;" vertex="1" parent="1QSXjgdurOBsBtaRAweG-153">
          <mxGeometry y="78" width="187" height="26" as="geometry" />
        </mxCell>
        <mxCell id="1QSXjgdurOBsBtaRAweG-157" value="String footer" style="text;align=left;verticalAlign=top;spacingLeft=4;spacingRight=4;overflow=hidden;rotatable=0;points=[[0,0.5],[1,0.5]];portConstraint=eastwest;" vertex="1" parent="1QSXjgdurOBsBtaRAweG-153">
          <mxGeometry y="104" width="187" height="26" as="geometry" />
        </mxCell>
        <mxCell id="1QSXjgdurOBsBtaRAweG-160" value="String format" style="text;align=left;verticalAlign=top;spacingLeft=4;spacingRight=4;overflow=hidden;rotatable=0;points=[[0,0.5],[1,0.5]];portConstraint=eastwest;" vertex="1" parent="1QSXjgdurOBsBtaRAweG-153">
          <mxGeometry y="130" width="187" height="26" as="geometry" />
        </mxCell>
        <mxCell id="1QSXjgdurOBsBtaRAweG-161" value="String style" style="text;align=left;verticalAlign=top;spacingLeft=4;spacingRight=4;overflow=hidden;rotatable=0;points=[[0,0.5],[1,0.5]];portConstraint=eastwest;" vertex="1" parent="1QSXjgdurOBsBtaRAweG-153">
          <mxGeometry y="156" width="187" height="26" as="geometry" />
        </mxCell>
        <mxCell id="1QSXjgdurOBsBtaRAweG-158" value="" style="line;html=1;strokeWidth=1;align=left;verticalAlign=middle;spacingTop=-1;spacingLeft=3;spacingRight=3;rotatable=0;labelPosition=right;points=[];portConstraint=eastwest;" vertex="1" parent="1QSXjgdurOBsBtaRAweG-153">
          <mxGeometry y="182" width="187" height="8" as="geometry" />
        </mxCell>
        <mxCell id="1QSXjgdurOBsBtaRAweG-159" value="getter()" style="text;align=left;verticalAlign=top;spacingLeft=4;spacingRight=4;overflow=hidden;rotatable=0;points=[[0,0.5],[1,0.5]];portConstraint=eastwest;" vertex="1" parent="1QSXjgdurOBsBtaRAweG-153">
          <mxGeometry y="190" width="187" height="26" as="geometry" />
        </mxCell>
        <mxCell id="1QSXjgdurOBsBtaRAweG-162" value="setter()" style="text;align=left;verticalAlign=top;spacingLeft=4;spacingRight=4;overflow=hidden;rotatable=0;points=[[0,0.5],[1,0.5]];portConstraint=eastwest;" vertex="1" parent="1QSXjgdurOBsBtaRAweG-153">
          <mxGeometry y="216" width="187" height="26" as="geometry" />
        </mxCell>
        <mxCell id="1QSXjgdurOBsBtaRAweG-163" style="edgeStyle=orthogonalEdgeStyle;rounded=0;orthogonalLoop=1;jettySize=auto;html=1;exitX=0;exitY=0.5;exitDx=0;exitDy=0;entryX=0;entryY=0.5;entryDx=0;entryDy=0;dashed=1;endArrow=openThin;endFill=0;" edge="1" parent="WIyWlLk6GJQsqaUBKTNV-1" source="1QSXjgdurOBsBtaRAweG-124" target="1QSXjgdurOBsBtaRAweG-157">
          <mxGeometry relative="1" as="geometry" />
        </mxCell>
      </root>
    </mxGraphModel>
  </diagram>
</mxfile>
